<?xml version="1.0" standalone="no"?>
<!DOCTYPE svg PUBLIC "-//W3C//DTD SVG 20010904//EN"
 "http://www.w3.org/TR/2001/REC-SVG-20010904/DTD/svg10.dtd">
<svg version="1.0" xmlns="http://www.w3.org/2000/svg"
 width="300.000000pt" height="301.000000pt" viewBox="0 0 300.000000 301.000000"
 preserveAspectRatio="xMidYMid meet">
<metadata>
Created by potrace 1.10, written by Peter Selinger 2001-2011
</metadata>
<g transform="translate(0.000000,301.000000) scale(0.100000,-0.100000)"
fill="#000000" stroke="none">
<path d="M1608 3004 c29 -13 7 -88 -31 -105 -19 -8 -18 -9 8 -4 17 3 37 7 45
9 8 3 19 5 23 5 4 1 4 8 -1 17 -5 9 -6 31 -2 48 7 30 5 32 -24 33 -17 1 -25
-1 -18 -3z"/>
<path d="M1746 2998 c4 -7 8 -34 9 -60 2 -74 15 -70 15 5 0 54 -3 67 -16 67
-9 0 -12 -5 -8 -12z"/>
<path d="M1230 2982 c0 -11 -6 -23 -12 -25 -7 -3 -1 -6 14 -6 35 -1 42 12 18
34 -19 17 -20 17 -20 -3z"/>
<path d="M2470 2971 c0 -13 25 -20 49 -14 33 9 24 23 -14 23 -19 0 -35 -4 -35
-9z"/>
<path d="M1129 2956 c8 -9 16 -14 19 -11 3 3 11 0 19 -7 10 -8 17 -8 25 0 15
15 11 19 -37 28 -37 7 -39 6 -26 -10z"/>
<path d="M2930 2960 c-61 -8 -146 -17 -230 -25 -68 -7 -90 -13 -90 -27 0 -7
14 -8 38 -4 20 3 87 11 147 17 61 5 119 11 130 14 11 2 32 4 48 4 17 1 27 6
27 16 0 8 -3 14 -7 14 -5 -1 -33 -5 -63 -9z"/>
<path d="M2337 2898 c-95 -12 -357 -39 -426 -43 -114 -7 -139 -14 -145 -41 -4
-13 -11 -24 -17 -24 -6 0 -7 -5 -2 -12 4 -7 8 -22 9 -33 2 -68 5 -85 12 -85 4
0 8 10 8 23 1 12 3 31 3 42 1 11 -1 34 -5 51 -7 36 -1 39 101 49 74 7 236 24
290 31 140 15 222 24 238 24 20 0 23 16 5 22 -7 2 -39 1 -71 -4z"/>
<path d="M2783 2720 c-90 -9 -165 -19 -169 -22 -3 -4 -3 -12 2 -19 4 -7 6 -43
5 -81 -1 -37 2 -68 7 -68 5 0 10 32 10 71 0 45 5 75 12 79 7 4 49 11 94 15 44
4 95 8 111 10 17 2 56 7 88 10 31 4 57 11 57 15 0 11 -19 10 -217 -10z"/>
<path d="M2300 2679 c-30 -4 -92 -10 -137 -12 -89 -4 -113 -15 -106 -51 3 -13
-2 -37 -11 -54 -9 -18 -12 -33 -6 -37 11 -7 34 28 50 78 7 23 18 37 28 37 9 1
73 7 142 14 69 7 131 11 138 9 6 -3 12 2 12 11 0 18 -20 19 -110 5z"/>
<path d="M1880 2650 c0 -5 -22 -10 -50 -10 -29 0 -50 -4 -50 -11 0 -7 27 -10
78 -8 42 2 82 0 88 -4 7 -4 17 0 24 7 16 20 -21 41 -40 23 -10 -9 -14 -9 -17
1 -6 14 -33 16 -33 2z"/>
<path d="M2183 2564 c0 -28 -17 -44 -46 -44 -10 0 -25 -7 -33 -15 -13 -13 -9
-14 33 -12 42 2 48 -1 53 -21 10 -42 24 -22 21 31 -2 60 -9 87 -20 87 -5 0 -8
-12 -8 -26z"/>
<path d="M2948 2514 c-2 -1 -46 -6 -98 -9 -52 -4 -101 -7 -107 -7 -7 -1 -13
-4 -13 -7 0 -3 -25 -5 -55 -4 -48 1 -76 -9 -63 -22 2 -3 42 0 89 5 46 5 111
12 144 14 101 9 155 18 155 26 0 7 -46 11 -52 4z"/>
<path d="M2292 2456 c-30 -10 -70 -62 -57 -74 6 -7 55 26 55 37 0 12 69 35 98
33 12 -1 22 3 22 8 0 13 -75 10 -118 -4z"/>
<path d="M1515 2438 c-128 -12 -125 -11 -125 -25 0 -7 -4 -13 -9 -13 -5 0 -16
-13 -25 -30 -11 -23 -11 -30 -2 -30 7 0 18 11 24 25 18 39 58 52 159 53 51 1
95 -2 98 -7 3 -5 14 -7 25 -4 11 3 40 -2 64 -11 36 -14 48 -25 66 -63 25 -54
38 -52 15 3 -20 48 -54 74 -119 90 -28 6 -58 14 -66 16 -8 3 -55 1 -105 -4z"/>
<path d="M2616 2388 c-11 -56 -8 -80 11 -76 20 4 28 54 11 64 -7 4 -7 9 0 13
6 4 5 10 -3 18 -10 9 -14 5 -19 -19z"/>
<path d="M2301 2373 c-17 -20 -29 -39 -26 -41 7 -7 45 9 40 17 -2 5 4 16 15
26 11 10 20 22 20 27 0 18 -20 6 -49 -29z"/>
<path d="M2333 2298 c-50 -16 -40 -30 15 -22 54 8 56 9 47 23 -7 13 -19 13
-62 -1z"/>
<path d="M2969 2286 c-4 -4 -106 -15 -153 -15 -16 -1 -26 -4 -23 -8 8 -7 127
-5 175 3 17 4 32 10 32 15 0 9 -23 13 -31 5z"/>
<path d="M1355 2260 c3 -6 0 -12 -7 -15 -8 -3 -15 -20 -16 -37 -2 -17 -7 -37
-13 -44 -11 -13 -39 -8 -50 9 -10 14 -67 -23 -73 -47 -9 -33 -7 -54 9 -111 18
-59 56 -105 90 -105 14 0 28 -12 43 -38 12 -21 41 -60 65 -85 34 -37 50 -47
75 -47 34 0 112 -21 112 -30 0 -15 99 5 133 27 55 34 58 20 8 -31 -24 -24 -43
-48 -43 -52 0 -5 -2 -11 -5 -14 -4 -3 -3 1 1 8 11 18 -2 15 -37 -10 -17 -13
-41 -28 -52 -34 -11 -6 -19 -16 -17 -23 1 -7 -2 -10 -6 -7 -17 10 -46 -34 -51
-77 -5 -37 -9 -42 -36 -47 -25 -4 -30 -10 -32 -35 -2 -29 -2 -29 7 -5 6 18 8
20 9 7 1 -17 2 -17 17 -3 8 9 22 16 30 16 8 0 13 4 10 8 -3 5 15 14 40 20 28
8 43 16 38 23 -4 7 -9 8 -13 1 -3 -5 -15 -12 -26 -14 -17 -2 -20 2 -17 30 3
37 9 45 62 82 29 20 33 21 21 5 -8 -11 0 -5 18 13 34 34 55 40 65 20 3 -7 3
-3 1 9 -3 12 -1 24 5 28 6 3 8 12 4 18 -3 7 2 3 10 -7 16 -19 16 -19 16 6 0
15 7 29 17 32 15 6 15 8 3 16 -12 8 -12 10 3 16 12 4 14 10 8 18 -6 7 -3 19 9
33 21 27 36 15 46 -36 5 -25 15 -35 52 -51 24 -11 51 -20 58 -20 8 0 14 -4 14
-9 0 -11 83 -44 170 -66 83 -21 151 -54 148 -70 -2 -8 13 -24 32 -37 19 -13
44 -38 55 -55 11 -18 25 -32 31 -33 13 0 59 -50 67 -73 10 -27 159 -196 179
-203 10 -3 31 -24 46 -47 14 -23 41 -59 59 -80 18 -20 33 -48 33 -60 0 -19 8
-26 40 -36 21 -6 53 -23 70 -37 25 -22 30 -33 30 -71 0 -54 72 -197 78 -155 2
13 -6 47 -18 74 -13 31 -20 62 -16 78 10 54 5 60 -103 127 -30 19 -65 60 -128
153 -9 14 -48 56 -86 93 -56 55 -67 71 -56 79 11 8 11 9 -3 5 -16 -6 -53 25
-43 35 3 2 -6 11 -20 18 -13 7 -29 26 -34 42 -15 42 -197 218 -226 218 -6 0
-16 5 -23 12 -6 6 -17 13 -24 15 -7 1 -47 12 -88 24 -41 11 -80 22 -85 23 -6
1 -29 12 -50 25 -22 13 -55 28 -75 35 -24 8 -45 26 -68 61 -35 53 -35 50 -12
160 6 28 11 84 10 125 0 84 -2 99 -13 118 -5 6 -5 12 -1 12 4 0 -3 11 -16 25
-31 33 -70 26 -117 -22 l-35 -34 21 -44 c24 -51 27 -81 9 -88 -10 -4 -10 -6 0
-6 7 -1 15 6 18 14 4 8 10 12 15 9 14 -8 11 4 -18 63 l-27 55 24 18 c30 23 69
31 91 19 20 -10 34 -87 30 -169 -2 -76 -39 -201 -65 -222 -11 -9 -23 -15 -25
-12 -2 2 -10 -4 -16 -13 -14 -19 -73 -25 -92 -10 -8 5 -13 6 -13 0 0 -5 -9 -9
-20 -9 -11 0 -20 5 -20 11 0 5 -4 4 -9 -4 -6 -8 -14 -10 -22 -5 -8 5 -23 10
-33 11 -55 9 -169 83 -153 99 3 4 0 13 -8 21 -14 13 -20 44 -15 68 1 6 2 57 1
114 -1 81 3 112 18 146 18 42 18 55 -1 55 -5 0 -6 -5 -3 -10z m-75 -125 c27
-14 30 -21 31 -63 1 -26 3 -66 5 -90 9 -105 -80 -33 -101 81 -5 27 -3 44 9 62
19 29 19 29 56 10z"/>
<path d="M2479 2249 c-13 -25 1 -40 32 -32 23 6 25 39 3 47 -22 8 -22 8 -35
-15z"/>
<path d="M2607 2253 c-2 -5 2 -21 9 -38 11 -27 13 -28 20 -10 4 11 14 28 22
38 14 16 13 17 -16 17 -17 0 -33 -3 -35 -7z"/>
<path d="M1443 2205 l-38 -36 37 19 c27 14 52 18 91 15 29 -2 64 0 78 5 21 9
19 10 -26 16 -27 4 -62 10 -77 12 -21 4 -35 -3 -65 -31z"/>
<path d="M1553 2173 c-15 -5 -17 -39 -4 -47 10 -7 43 39 34 48 -7 7 -12 7 -30
-1z"/>
<path d="M2435 2170 c-18 -7 -19 -8 -2 -15 26 -11 21 -44 -7 -51 -14 -3 -30
-3 -35 1 -6 3 -21 -1 -33 -9 -19 -14 -19 -16 -5 -22 10 -3 38 -2 64 2 l46 9 0
43 c0 50 -2 52 -28 42z"/>
<path d="M2538 2135 c-3 -42 2 -51 27 -45 6 1 16 3 23 3 19 1 14 15 -8 22 -24
8 -25 18 -5 38 16 16 10 27 -16 27 -13 0 -18 -10 -21 -45z"/>
<path d="M1472 2158 c-21 -21 -14 -38 16 -37 26 2 26 2 3 6 l-25 5 25 19 c17
13 19 19 9 19 -9 0 -21 -5 -28 -12z"/>
<path d="M1761 2161 c-8 -5 -11 -16 -7 -29 8 -23 32 -36 41 -22 4 6 1 10 -4
10 -6 0 -11 8 -11 18 0 15 2 15 11 2 8 -12 10 -12 7 4 -4 23 -18 29 -37 17z"/>
<path d="M2969 2146 c-2 -3 -45 -7 -94 -11 -50 -3 -119 -8 -155 -11 -36 -4
-73 -6 -82 -6 -10 0 -21 -4 -24 -10 -6 -10 97 -7 236 7 19 2 61 5 93 7 38 2
57 7 57 15 0 12 -22 18 -31 9z"/>
<path d="M1618 2065 c-20 -26 -23 -51 -9 -59 5 -4 7 2 4 13 -3 11 3 24 15 33
12 8 18 19 14 25 -5 7 -13 2 -24 -12z"/>
<path d="M2375 2022 c-22 -2 -42 -7 -45 -11 -3 -4 -14 -13 -25 -20 -17 -10
-14 -10 20 -5 84 13 110 20 108 29 -2 12 -8 12 -58 7z"/>
<path d="M1704 1986 c-8 -21 42 -74 57 -59 7 7 0 20 -20 42 -26 27 -32 30 -37
17z"/>
<path d="M2505 1981 c-3 -11 -15 -23 -26 -26 -13 -5 -18 -12 -14 -24 3 -10 -3
-25 -13 -34 -18 -16 -20 -16 -37 3 -10 11 -22 17 -26 14 -14 -8 -10 -24 6 -24
20 0 38 -36 30 -61 -4 -11 -3 -18 2 -17 5 2 22 -9 38 -24 30 -28 45 -35 45
-20 0 11 -47 52 -60 52 -20 0 -9 32 21 63 29 30 59 84 59 107 0 18 -18 11 -25
-9z"/>
<path d="M1646 1983 c-4 -5 -26 -13 -48 -18 -23 -6 -47 -20 -55 -32 -13 -19
-12 -21 9 -21 13 0 30 -2 38 -4 8 -1 15 2 15 7 0 6 -5 9 -12 7 -7 -2 -13 4
-13 13 0 10 10 15 33 15 40 0 66 15 51 30 -6 6 -14 7 -18 3z"/>
<path d="M2370 1951 c0 -13 23 -20 53 -14 41 8 32 23 -13 23 -22 0 -40 -4 -40
-9z"/>
<path d="M2940 1830 c-30 -21 -68 -40 -85 -42 -19 -2 -30 -9 -30 -19 0 -9 -14
-28 -30 -43 l-30 -27 35 17 c19 9 39 23 43 31 5 9 16 11 29 7 15 -4 18 -3 13
6 -5 9 -4 11 3 6 19 -12 112 56 112 82 0 12 -1 22 -2 21 -2 0 -28 -18 -58 -39z"/>
<path d="M2635 1850 c3 -4 -1 -10 -8 -13 -9 -3 -12 -17 -9 -41 2 -21 7 -35 9
-32 3 3 12 -1 20 -9 8 -8 23 -15 34 -15 11 0 29 -5 41 -11 11 -6 22 -8 26 -5
9 9 -30 35 -53 36 -11 0 -27 5 -35 10 -12 8 -13 13 -2 30 18 29 15 47 -8 53
-11 3 -18 2 -15 -3z"/>
<path d="M2520 1750 c0 -5 14 -10 31 -10 17 0 28 4 24 10 -3 6 -17 10 -31 10
-13 0 -24 -4 -24 -10z"/>
<path d="M1366 1703 c-8 -24 -26 -32 -26 -11 0 6 -9 1 -20 -12 -11 -13 -20
-27 -20 -31 0 -4 -7 -15 -16 -23 -8 -9 -12 -16 -7 -16 17 0 37 19 50 47 7 15
11 20 8 10 -3 -10 -5 -28 -5 -38 0 -11 -4 -18 -9 -15 -5 3 -12 -1 -15 -10 -3
-9 -2 -12 5 -9 13 8 1 -44 -15 -64 -8 -11 -8 -13 1 -8 6 4 14 1 16 -5 4 -10 6
-10 6 0 1 6 9 12 19 12 14 0 15 -2 2 -10 -9 -6 -11 -10 -3 -10 8 0 10 -7 6
-17 -4 -11 -8 -12 -11 -5 -2 7 -8 12 -14 12 -5 0 0 -13 12 -30 23 -33 43 -40
33 -12 -4 11 -3 14 4 7 17 -16 26 -55 13 -55 -16 0 -29 -42 -18 -62 13 -25 31
-22 25 3 -6 22 15 54 27 42 3 -4 6 6 6 20 0 16 -8 30 -19 37 -11 5 -27 30 -37
55 -13 35 -21 44 -33 40 -13 -5 -14 -4 -3 6 6 7 12 29 12 50 0 22 8 47 21 63
11 14 19 34 17 44 -4 14 -5 13 -12 -5z"/>
<path d="M1388 1630 c-8 -50 8 -94 47 -130 30 -29 48 -19 31 18 -7 15 -18 38
-24 52 -10 22 -10 19 -5 -19 9 -65 -12 -44 -25 26 -7 32 -13 67 -15 78 -2 11
-6 0 -9 -25z"/>
<path d="M2773 1637 c-15 -13 -50 -39 -78 -57 -70 -48 -203 -154 -183 -147 16
6 245 175 282 209 29 26 12 22 -21 -5z"/>
<path d="M1788 1589 l-33 -31 30 20 c17 10 36 18 43 16 7 -1 8 0 2 3 -5 2 -8
9 -4 14 11 18 -6 8 -38 -22z"/>
<path d="M20 1606 c0 -3 168 -100 250 -144 13 -7 39 -22 57 -33 18 -12 33 -17
33 -12 0 6 -12 16 -27 24 -16 7 -66 37 -113 65 -79 47 -186 104 -196 104 -2 0
-4 -2 -4 -4z"/>
<path d="M2598 1572 c-34 -25 -53 -59 -27 -50 6 2 9 7 7 11 -2 4 12 16 30 27
17 11 32 24 32 30 0 13 1 14 -42 -18z"/>
<path d="M0 1571 c0 -11 41 -37 53 -33 4 1 7 -2 7 -8 0 -5 6 -10 13 -11 6 0
41 -18 77 -39 36 -22 90 -53 120 -70 54 -29 83 -47 104 -63 6 -4 28 -18 49
-32 31 -21 36 -22 28 -6 -9 16 -125 89 -316 198 -105 61 -135 75 -135 64z"/>
<path d="M1254 1562 c-21 -18 -49 -61 -42 -66 2 -2 18 17 35 40 18 24 32 44
30 44 -1 -1 -11 -9 -23 -18z"/>
<path d="M1600 1562 c0 -5 -9 -18 -20 -30 -12 -12 -16 -23 -10 -27 6 -3 14 5
20 19 6 17 17 26 32 26 19 0 20 2 8 10 -18 12 -30 13 -30 2z"/>
<path d="M2205 1520 c-8 -16 -14 -33 -13 -37 0 -4 -4 -21 -11 -37 -6 -16 -9
-31 -6 -34 10 -10 -17 -31 -33 -25 -16 5 -16 5 0 -8 11 -10 15 -23 11 -42 -5
-23 -8 -26 -21 -15 -12 10 -14 10 -8 1 4 -7 2 -22 -4 -33 -7 -13 -7 -20 0 -20
5 0 10 -5 10 -11 0 -5 -4 -8 -9 -5 -12 8 -34 -21 -28 -36 3 -8 6 -6 6 5 1 10
5 16 10 13 4 -3 6 -17 3 -31 -3 -20 -7 -23 -17 -15 -11 9 -12 7 -8 -8 6 -23
43 -19 43 5 0 34 32 153 40 148 5 -3 14 14 20 37 6 24 18 63 26 88 9 28 11 46
4 48 -7 3 -6 10 0 23 6 10 8 19 6 19 -3 0 -12 -13 -21 -30z"/>
<path d="M1636 1495 c-19 -15 -19 -15 4 -15 l23 0 -23 -27 c-24 -27 -24 -27 5
1 20 19 26 30 17 33 -6 3 -10 9 -6 14 7 12 2 11 -20 -6z"/>
<path d="M1967 1497 c3 -4 12 -6 20 -3 23 9 36 -4 17 -18 -14 -11 -15 -18 -5
-42 l11 -29 -5 31 c-5 25 -1 33 20 44 37 20 31 29 -19 27 -25 0 -42 -5 -39
-10z"/>
<path d="M1810 1491 c32 -6 34 -7 15 -18 -11 -7 -15 -12 -10 -12 6 -1 21 8 35
19 l25 20 -50 -2 c-46 -1 -47 -1 -15 -7z"/>
<path d="M1173 1446 c-12 -7 -19 -16 -15 -22 14 -18 30 -13 35 11 2 14 4 25 3
24 0 -1 -11 -6 -23 -13z"/>
<path d="M1800 1435 c8 -10 8 -20 -1 -37 l-11 -23 21 23 c25 25 24 44 -3 48
-13 2 -15 -1 -6 -11z"/>
<path d="M979 1429 c-19 -10 -45 -66 -36 -76 4 -3 10 3 13 13 4 10 16 29 27
41 23 25 20 36 -4 22z"/>
<path d="M1236 1425 c-3 -9 3 -19 15 -25 15 -8 19 -8 17 2 -3 13 5 14 32 3 11
-4 16 1 17 16 2 16 -1 19 -9 11 -6 -6 -16 -8 -23 -6 -7 3 -16 1 -20 -5 -3 -6
-11 -11 -17 -11 -7 0 -6 6 2 15 7 9 8 15 2 15 -5 0 -12 -7 -16 -15z"/>
<path d="M2127 1433 c-11 -3 -16 -11 -13 -18 3 -9 0 -12 -10 -8 -8 3 -14 -1
-14 -9 0 -8 7 -15 15 -15 14 0 16 5 14 23 0 3 8 12 18 20 19 14 19 14 -10 7z"/>
<path d="M1884 1393 c1 -21 7 -27 29 -30 25 -3 27 -2 18 15 -6 11 -7 23 -3 27
4 5 1 5 -6 1 -7 -4 -10 -11 -8 -15 3 -4 -2 -8 -10 -8 -8 0 -13 6 -10 13 3 8 1
16 -3 18 -4 3 -8 -7 -7 -21z"/>
<path d="M370 1406 c0 -3 115 -78 160 -104 l25 -14 -25 22 c-14 12 -49 36 -77
52 -29 17 -56 34 -59 39 -5 9 -24 13 -24 5z"/>
<path d="M1488 1388 c-13 -13 -29 -22 -35 -20 -7 2 -13 -6 -13 -17 0 -17 3
-18 30 -8 22 8 33 8 41 0 9 -9 7 -11 -10 -6 -12 3 -21 1 -21 -6 0 -6 16 -11
38 -11 24 0 32 3 24 9 -10 6 -8 10 10 14 12 4 24 3 26 -1 1 -5 17 -6 34 -4 29
4 31 3 17 -10 -8 -8 -21 -17 -29 -21 -9 -3 -10 -6 -3 -6 7 -1 10 -8 7 -16 -4
-8 -3 -15 0 -15 4 0 10 10 15 22 7 20 9 20 25 -13 16 -32 16 -34 -1 -46 -9 -7
-32 -13 -51 -13 -21 0 -31 -4 -26 -11 3 -6 17 -8 32 -4 25 6 26 6 9 -13 -21
-23 -22 -33 -2 -26 8 4 15 11 15 18 0 13 30 40 51 44 8 2 20 9 27 16 11 10 9
13 -10 12 -14 -1 -22 4 -20 12 1 8 -2 11 -9 6 -8 -5 -10 -2 -6 9 3 9 -1 18
-11 22 -9 3 -12 9 -7 13 6 4 15 14 22 22 10 13 6 15 -29 12 -24 -3 -38 0 -35
5 8 13 -25 13 -40 1 -15 -12 -63 -2 -63 13 0 7 12 8 33 4 31 -6 32 -5 8 8 -18
11 -20 16 -10 20 10 4 10 6 2 6 -7 1 -23 -9 -35 -21z"/>
<path d="M1803 1370 c-33 -4 -40 -8 -34 -19 6 -9 11 -10 15 -2 4 6 17 11 29
11 17 0 19 -2 7 -9 -8 -6 -17 -8 -20 -6 -3 2 -6 -5 -7 -14 -1 -15 4 -14 30 10
17 16 29 30 26 31 -2 2 -23 1 -46 -2z"/>
<path d="M927 1333 c-4 -3 -7 -14 -7 -24 0 -16 -29 -77 -50 -104 -4 -5 -10
-27 -14 -48 -4 -21 -13 -41 -21 -43 -12 -5 -12 -8 0 -21 15 -14 20 -33 9 -33
-3 0 -15 5 -27 11 -21 11 -21 11 -6 -7 11 -12 14 -26 9 -39 -4 -11 -5 -26 -2
-34 3 -7 0 -16 -5 -20 -10 -6 -30 -38 -76 -126 -12 -22 -27 -47 -35 -56 -11
-14 -10 -18 4 -23 12 -5 14 -9 5 -20 -6 -7 -8 -16 -4 -19 15 -15 -24 -37 -130
-71 -61 -21 -121 -41 -132 -46 -11 -5 -40 -16 -65 -24 -101 -34 -282 -107
-277 -112 2 -2 30 7 63 20 96 39 311 111 437 146 131 37 140 46 138 121 0 23
7 46 19 62 11 14 20 29 20 33 0 4 13 28 29 53 16 25 36 73 45 106 38 157 45
178 55 188 6 6 11 23 11 38 0 30 15 47 23 27 3 -7 4 -3 4 9 -1 12 -5 19 -9 16
-5 -2 -6 7 -2 21 6 26 3 32 -9 19z"/>
<path d="M1115 1320 c-25 -4 -31 -8 -16 -9 23 -1 24 -2 6 -21 -9 -10 -15 -26
-12 -34 7 -19 47 -41 47 -26 0 5 -7 10 -16 10 -8 0 -13 4 -9 9 3 5 0 13 -6 17
-8 5 -1 17 22 35 19 16 32 28 29 27 -3 0 -23 -4 -45 -8z"/>
<path d="M482 1288 c3 -7 26 -24 51 -38 26 -13 46 -30 44 -37 -1 -7 17 -23 40
-35 108 -59 166 -87 146 -71 -86 70 -287 200 -281 181z"/>
<path d="M2017 1247 c3 -5 -11 -7 -36 -4 -22 2 -41 0 -41 -4 0 -5 15 -9 33 -9
30 -1 31 -1 13 -15 -11 -8 -17 -17 -14 -20 2 -3 13 4 23 15 10 11 23 20 30 20
6 0 12 6 12 13 0 8 -6 14 -13 14 -7 0 -11 -5 -7 -10z"/>
<path d="M1350 1220 c-1 -8 -2 -19 -1 -24 1 -4 -9 -6 -23 -2 -14 3 -28 2 -31
-4 -4 -6 5 -10 19 -10 27 0 35 -15 14 -23 -8 -4 -9 -6 -2 -6 20 -2 36 27 31
56 -2 15 -5 21 -7 13z"/>
<path d="M1780 1221 c35 -6 35 -7 12 -19 -28 -16 -24 -34 9 -39 18 -2 20 -1 9
6 -8 5 -18 7 -22 5 -19 -12 -6 9 20 31 l27 24 -45 -1 c-44 -1 -44 -1 -10 -7z"/>
<path d="M1025 1195 c1 -11 3 -25 6 -31 3 -5 5 -30 4 -56 0 -27 3 -48 7 -48 4
0 5 -7 1 -16 -5 -14 -3 -15 16 -4 20 10 21 13 7 23 -9 7 -17 30 -19 52 -1 22
-6 45 -9 51 -10 16 0 23 23 17 16 -5 17 -8 7 -21 -9 -11 -4 -9 14 3 22 17 23
21 10 26 -10 3 -23 4 -29 2 -7 -3 -13 1 -13 9 0 8 -6 15 -13 15 -7 0 -12 -10
-12 -22z"/>
<path d="M947 1203 c-15 -27 73 -383 95 -383 5 0 6 -4 3 -10 -3 -5 14 -57 38
-115 37 -87 42 -106 31 -116 -8 -6 -25 -8 -40 -5 -22 6 -25 4 -20 -12 7 -21
-25 -68 -52 -76 -10 -4 -43 6 -73 21 -29 15 -90 41 -134 58 -75 29 -80 33 -77
59 l3 28 -24 -19 c-14 -10 -21 -20 -17 -23 7 -5 23 -46 25 -65 1 -5 -2 -22 -6
-37 -4 -16 -4 -28 2 -28 5 0 9 10 9 23 0 13 6 31 13 42 13 17 16 17 62 1 27
-9 54 -16 62 -16 7 0 22 -8 33 -18 11 -9 22 -15 23 -13 1 2 18 -5 37 -16 l35
-20 -1 -79 c-1 -77 0 -78 12 -39 7 22 13 57 13 78 1 20 5 37 9 37 5 0 30 20
57 45 57 55 72 49 55 -22 -13 -53 -29 -156 -34 -218 -5 -50 -16 -95 -25 -95
-3 -1 -30 -2 -58 -4 -29 -2 -50 1 -47 5 3 5 -2 9 -11 9 -13 0 -15 -6 -10 -30
4 -19 2 -36 -5 -45 -16 -20 -41 -105 -30 -105 4 0 16 20 25 44 9 24 32 59 51
77 l34 33 33 -19 c17 -10 41 -23 52 -29 26 -14 36 -28 31 -43 -3 -6 6 -14 19
-17 13 -3 27 -16 31 -29 7 -21 7 -21 15 -2 11 30 11 35 -5 35 -8 0 -22 7 -31
16 -14 15 -14 18 0 40 9 14 11 24 5 24 -6 0 -13 -7 -16 -15 -9 -22 -26 -18
-19 4 3 11 1 22 -5 26 -5 3 -10 -1 -10 -9 0 -17 -25 -22 -34 -8 -3 5 1 26 9
48 7 21 16 71 19 109 4 39 12 98 18 132 l11 61 34 -5 c20 -4 33 -1 33 5 0 6
-12 10 -27 9 -19 -1 -27 2 -25 12 2 8 -1 26 -7 42 -14 40 -4 68 21 61 20 -5
20 -6 3 -19 -16 -11 -17 -13 -3 -13 10 0 22 14 29 34 7 19 16 33 21 30 4 -3 8
-3 8 0 0 3 -9 10 -21 17 -18 9 -20 8 -15 -9 5 -16 1 -20 -24 -24 -30 -5 -41 6
-17 15 7 3 4 6 -7 6 -16 1 -17 3 -5 19 7 9 10 14 5 10 -15 -12 -35 18 -29 42
4 16 3 21 -5 16 -7 -4 -12 -2 -12 3 0 6 6 11 13 11 6 1 1 7 -12 14 -16 9 -20
15 -12 21 7 4 10 13 7 21 -3 8 -1 14 5 14 5 0 4 6 -3 14 -7 7 -19 11 -25 9
-19 -7 -16 8 5 23 16 13 16 14 0 8 -11 -4 -18 -1 -18 6 0 6 -4 9 -9 5 -5 -3
-12 -1 -16 5 -3 5 -2 10 4 10 5 0 2 14 -6 31 -13 26 -14 36 -4 52 7 10 8 16 2
13 -5 -4 -15 3 -21 14 -6 11 -9 20 -6 20 2 0 0 16 -4 35 -4 20 -4 35 1 35 5 0
9 -5 9 -12 0 -6 2 -9 5 -6 3 3 1 16 -4 29 -5 13 -10 18 -10 10 -1 -8 -4 -11
-7 -8 -4 4 -1 13 6 22 10 12 9 15 -6 16 -16 0 -16 2 4 9 31 13 28 23 -5 16
-16 -4 -23 -3 -16 1 8 6 8 13 -2 26 -7 10 -15 15 -18 10z"/>
<path d="M1183 1203 c-7 -3 -13 -9 -13 -15 0 -6 7 -8 15 -4 13 5 14 2 4 -15
-17 -32 -6 -31 13 1 16 29 9 42 -19 33z"/>
<path d="M560 1162 c0 -9 44 -32 60 -32 6 0 10 5 10 10 0 6 -9 10 -19 10 -11
0 -23 5 -26 10 -8 12 -25 13 -25 2z"/>
<path d="M2033 1128 c0 -18 2 -27 5 -20 2 6 9 9 14 6 6 -4 8 -2 4 4 -4 7 4 10
22 10 17 -1 29 -6 29 -14 0 -8 -5 -14 -10 -14 -6 0 -7 -3 -4 -6 4 -4 13 -2 20
4 11 9 13 6 9 -18 -5 -36 -5 -36 -33 -7 -12 12 -19 16 -15 10 4 -7 4 -13 -1
-13 -4 0 -8 -11 -8 -25 0 -28 3 -29 25 -15 12 8 12 10 1 10 -8 0 -11 3 -8 6 4
4 13 1 22 -6 13 -11 12 -15 -10 -34 -32 -28 -32 -34 1 -28 20 4 25 2 19 -8 -5
-8 -4 -11 2 -7 5 3 10 30 11 59 1 29 5 66 8 82 4 19 3 26 -5 22 -7 -5 -11 1
-11 14 0 20 -1 20 -17 4 -10 -10 -19 -12 -21 -6 -2 6 -10 8 -19 5 -8 -3 -18
-1 -22 6 -4 6 -8 -3 -8 -21z"/>
<path d="M450 1135 c-19 -23 -2 -67 28 -71 14 -3 22 1 22 10 0 9 -7 12 -20 9
-16 -4 -20 0 -20 20 0 22 4 25 36 24 35 -1 36 -2 31 -34 -3 -18 -2 -33 3 -33
15 0 24 51 13 69 -14 22 -76 26 -93 6z"/>
<path d="M1840 1141 c-8 -6 -18 -7 -24 -4 -5 3 -6 2 -3 -3 8 -14 60 -11 65 4
4 14 -17 16 -38 3z"/>
<path d="M1473 1133 c-15 -6 -17 -33 -3 -33 6 0 9 4 8 9 -2 5 0 9 5 10 21 3
28 0 22 -9 -3 -5 -1 -10 4 -10 6 0 11 4 11 10 0 13 -32 28 -47 23z"/>
<path d="M1726 1102 c-3 -6 8 -15 25 -21 34 -12 31 -34 -4 -29 -12 1 -23 -1
-24 -5 -2 -4 -1 -7 2 -7 3 0 14 0 24 0 22 0 84 49 64 50 -7 0 -13 -4 -13 -10
0 -5 -5 -10 -11 -10 -5 0 -7 5 -4 10 3 6 -2 10 -12 10 -11 0 -24 5 -30 11 -7
7 -13 7 -17 1z"/>
<path d="M1565 1084 c-22 -7 -29 -12 -15 -9 14 3 37 5 53 5 15 0 27 5 27 10 0
13 -16 12 -65 -6z"/>
<path d="M1930 1091 c0 -6 14 -11 32 -11 31 0 31 0 13 -20 -15 -17 -16 -23 -5
-33 10 -10 11 -9 5 2 -5 9 2 21 21 37 21 17 24 23 13 24 -9 0 -31 3 -48 6 -20
4 -31 3 -31 -5z"/>
<path d="M683 1036 c-1 -27 2 -32 20 -32 15 1 23 -6 25 -20 3 -23 -13 -40 -43
-46 -17 -3 -19 2 -16 37 2 34 1 37 -12 27 -18 -15 -9 -60 15 -75 19 -12 80 12
74 29 -2 6 0 16 6 22 7 7 -2 23 -28 50 l-39 41 -2 -33z"/>
<path d="M1157 1050 c11 -8 18 -21 16 -27 -2 -6 1 -15 8 -19 8 -4 9 -3 5 4 -4
7 -2 12 5 12 7 0 9 3 6 7 -4 3 -2 12 3 18 8 10 2 14 -26 17 -35 4 -36 3 -17
-12z"/>
<path d="M1347 1053 c-12 -11 -8 -23 9 -23 8 0 13 -4 10 -9 -3 -5 -16 -7 -29
-3 -22 5 -22 5 -3 -16 18 -21 18 -22 -8 -32 -26 -10 -28 -30 -3 -30 7 0 6 4
-3 10 -12 8 -11 10 8 10 12 0 22 3 22 8 0 4 10 12 22 17 28 13 34 51 9 65 -23
12 -26 12 -34 3z"/>
<path d="M1480 1040 c0 -5 10 -11 23 -13 16 -3 14 -5 -10 -6 -17 0 -34 4 -36
9 -3 6 -4 5 -3 -2 2 -8 16 -12 37 -12 54 2 79 8 71 15 -12 11 -82 18 -82 9z"/>
<path d="M1043 980 c3 -22 1 -40 -4 -40 -5 0 -9 -6 -9 -14 0 -9 7 -12 20 -9
18 5 20 29 5 80 -2 6 1 14 8 17 7 2 4 5 -7 5 -16 1 -18 -4 -13 -39z"/>
<path d="M1425 960 c3 -5 0 -10 -7 -10 -7 0 -20 -11 -29 -23 -14 -20 -15 -24
-2 -36 13 -12 14 -11 8 7 -5 17 -3 21 9 16 12 -4 15 -2 11 9 -4 8 1 17 9 20
18 7 22 27 5 27 -5 0 -7 -4 -4 -10z"/>
<path d="M1490 958 c0 -8 16 -12 39 -9 8 2 10 -3 6 -11 -6 -10 -5 -10 4 -2 7
6 23 9 37 6 24 -4 24 -5 7 -26 -14 -16 -12 -16 10 3 15 14 27 28 27 32 0 4
-29 9 -65 11 -36 1 -65 0 -65 -4z"/>
<path d="M2110 947 l-25 -10 23 -5 c23 -3 23 -4 6 -23 -15 -17 -15 -19 -2 -14
9 4 19 2 23 -4 3 -6 17 -11 29 -11 13 0 29 -7 36 -15 10 -12 10 -15 -4 -15 -9
0 -16 5 -16 10 0 6 -5 10 -10 10 -6 0 -5 -8 2 -20 9 -15 22 -19 51 -18 21 1
34 4 30 8 -4 3 -25 19 -46 34 -21 16 -46 41 -55 56 -15 24 -20 26 -42 17z"/>
<path d="M1143 926 c1 -6 -4 -10 -11 -8 -8 1 -11 -2 -7 -8 3 -5 15 -10 27 -10
17 0 18 -2 8 -15 -22 -26 -5 -26 20 0 l23 25 -27 0 c-23 0 -26 3 -17 13 8 10
7 14 -4 14 -7 0 -13 -5 -12 -11z"/>
<path d="M1929 935 c-1 -3 -3 -9 -4 -15 -1 -5 -3 -15 -4 -20 -1 -7 -7 -7 -20
0 -26 13 -31 13 -31 -4 0 -9 12 -13 38 -12 20 1 44 -1 52 -5 12 -6 16 -1 18
19 1 15 -2 22 -6 16 -10 -14 -42 -25 -42 -14 0 5 5 12 10 15 6 3 10 10 10 16
0 9 -19 13 -21 4z"/>
<path d="M1280 910 c-11 -7 -8 -10 13 -16 27 -6 27 -7 11 -25 -10 -11 -15 -22
-12 -25 3 -3 16 9 28 25 20 29 19 36 -4 32 -5 -1 -12 2 -15 8 -4 6 -12 6 -21
1z"/>
<path d="M1705 891 c8 -8 75 -9 75 -1 0 3 -18 6 -41 7 -22 0 -37 -2 -34 -6z"/>
<path d="M1434 856 c-10 -8 -16 -18 -11 -22 4 -4 7 -2 7 4 0 7 5 12 11 12 6 0
8 -7 4 -17 -5 -14 -1 -13 14 4 12 12 21 25 21 28 0 10 -26 5 -46 -9z"/>
<path d="M2276 844 c-8 -22 -8 -24 9 -24 9 0 12 -6 8 -17 -4 -10 -2 -14 4 -10
6 4 14 0 17 -9 3 -9 11 -12 18 -8 8 5 9 2 5 -9 -3 -9 -2 -19 4 -22 5 -4 8 -1
7 6 -2 6 2 13 7 15 21 8 17 -45 -11 -151 -3 -11 -7 -31 -10 -45 -3 -14 -9 -38
-14 -55 -11 -39 -38 -177 -45 -238 -4 -26 -10 -45 -16 -42 -5 4 -9 -1 -9 -9 0
-9 -5 -16 -11 -16 -5 0 -8 -4 -5 -8 3 -5 -4 -15 -16 -23 -11 -8 -34 -24 -49
-37 -16 -13 -34 -20 -40 -16 -7 4 -9 3 -6 -3 4 -6 1 -13 -7 -16 -8 -3 -17 1
-20 10 -6 14 -8 14 -25 -1 -14 -13 -21 -14 -27 -5 -4 7 -3 10 3 6 6 -4 13 0
16 7 4 10 -1 14 -14 13 -10 -1 -19 -6 -19 -11 0 -5 -3 -6 -6 -3 -4 3 -15 2
-25 -4 -15 -8 -17 -6 -12 8 6 16 5 17 -12 3 -14 -11 -17 -11 -11 -1 7 11 0 12
-35 7 -24 -3 -69 -9 -99 -12 -30 -3 -56 -10 -58 -15 -2 -5 -10 -9 -17 -9 -8 0
-11 -7 -8 -21 6 -21 7 -20 20 6 14 25 19 27 58 23 24 -3 48 -1 53 4 7 7 41 5
99 -6 48 -9 101 -16 117 -16 29 0 143 73 168 109 7 9 27 26 43 37 62 39 159
132 231 221 64 79 73 95 63 111 -6 10 -21 23 -32 28 -12 5 -41 34 -66 64 -24
30 -57 63 -73 72 -15 10 -54 43 -85 73 -31 30 -58 55 -59 55 -1 0 -5 -7 -8
-16z m165 -156 c10 -13 18 -29 19 -35 0 -7 5 -13 11 -13 5 0 7 -4 4 -10 -3 -5
0 -10 8 -10 17 0 70 -40 63 -48 -3 -3 2 -10 11 -17 15 -11 13 -16 -13 -51 -79
-106 -213 -234 -244 -234 -17 0 4 109 50 270 11 36 21 79 23 95 3 36 24 75 38
75 6 0 19 -10 30 -22z"/>
<path d="M1537 811 c-24 -15 -26 -19 -12 -25 24 -9 32 -7 15 4 -11 7 -7 10 19
10 l34 0 -19 -22 c-19 -22 -19 -23 1 -8 42 31 46 49 9 42 -19 -3 -25 -1 -20 7
10 15 6 14 -27 -8z"/>
<path d="M2219 809 c-8 -5 -11 -9 -6 -10 4 -1 12 -3 17 -4 6 -1 13 -3 18 -4 4
-1 0 -5 -8 -11 -8 -5 -12 -11 -10 -14 3 -2 15 4 27 14 l22 17 -23 11 c-14 6
-28 7 -37 1z"/>
<path d="M2113 803 c-7 -2 -13 -12 -13 -21 0 -15 2 -15 10 -2 8 13 10 13 10
-2 0 -9 -8 -22 -17 -27 -10 -6 -13 -11 -6 -11 14 0 43 39 43 57 0 14 -6 15
-27 6z"/>
<path d="M1958 793 c18 -2 30 -9 26 -14 -3 -5 -11 -6 -17 -3 -7 4 -9 4 -5 -1
4 -4 2 -15 -5 -24 -7 -9 -2 -8 15 4 45 33 43 45 -5 43 -37 -1 -38 -2 -9 -5z"/>
<path d="M1190 782 c0 -7 -16 -12 -37 -13 l-38 -1 27 -12 c22 -9 25 -15 16
-24 -6 -6 -10 -14 -7 -16 2 -3 15 11 28 30 13 19 21 37 17 41 -3 3 -6 1 -6 -5z"/>
<path d="M1270 768 c0 -17 10 -22 37 -19 6 1 14 -3 18 -9 5 -8 11 -7 21 1 17
14 19 33 2 22 -17 -10 -61 -4 -70 11 -5 7 -8 5 -8 -6z"/>
<path d="M2280 729 c0 -22 -36 -58 -57 -59 -7 0 -13 -4 -13 -9 0 -4 11 -6 25
-3 14 2 25 11 25 18 0 8 7 14 15 14 8 0 15 6 16 13 0 6 2 20 4 30 2 9 -1 17
-6 17 -5 0 -9 -9 -9 -21z"/>
<path d="M1443 723 c1 -5 -8 -18 -20 -30 -21 -21 -24 -21 -50 -7 -23 13 -24
15 -5 11 12 -3 22 -1 22 4 0 12 -37 12 -45 0 -3 -5 -1 -12 5 -16 5 -3 7 -17 4
-31 -5 -20 -2 -24 16 -24 11 0 19 4 15 9 -3 6 3 15 14 20 29 16 34 14 29 -14
-6 -30 -4 -30 22 -7 11 9 23 16 26 14 2 -1 12 5 21 14 11 11 18 13 21 5 2 -6
14 -11 27 -11 31 0 40 -16 18 -29 -10 -5 -15 -12 -12 -15 3 -3 18 8 34 24 l29
30 -41 0 c-38 0 -69 18 -58 34 3 3 0 2 -6 -3 -12 -10 -49 -3 -49 9 0 5 6 11
13 13 6 3 2 6 -10 6 -13 1 -22 -2 -20 -6z m42 -43 c-3 -5 -17 -10 -31 -10 -13
0 -24 5 -24 10 0 6 14 10 31 10 17 0 28 -4 24 -10z"/>
<path d="M1738 662 c-10 -2 -18 -8 -18 -12 0 -5 14 -7 30 -3 19 3 30 1 30 -6
0 -6 -4 -11 -9 -11 -5 0 -12 -7 -15 -16 -4 -11 3 -8 23 8 17 13 30 26 30 29 1
8 -48 16 -71 11z"/>
<path d="M1916 656 c4 -10 19 -16 38 -16 29 -1 30 -1 12 -15 -11 -8 -16 -18
-12 -22 4 -5 16 3 27 16 23 28 23 28 -18 34 -17 3 -36 8 -42 12 -7 3 -8 0 -5
-9z"/>
<path d="M2100 650 c0 -5 7 -10 15 -10 12 0 13 -4 6 -19 -10 -18 -6 -31 11
-31 5 0 7 4 4 9 -4 5 -2 21 4 35 9 24 7 26 -15 26 -14 0 -25 -4 -25 -10z"/>
<path d="M2255 621 c-3 -5 2 -11 12 -13 15 -3 15 -4 -1 -20 -10 -10 -13 -18
-8 -18 5 0 17 11 25 24 15 22 15 25 1 30 -20 8 -22 8 -29 -3z"/>
<path d="M1320 601 c23 -4 31 -9 23 -14 -7 -5 -19 -5 -25 -1 -7 4 -10 4 -6 -1
4 -4 2 -15 -5 -23 -10 -13 -9 -14 3 -7 24 13 50 37 50 47 0 4 -17 7 -37 7
l-38 -2 35 -6z"/>
<path d="M2845 600 c-27 -5 -79 -9 -115 -9 -48 -1 -71 -7 -90 -21 -29 -22 -24
-25 17 -9 15 7 60 13 98 14 39 2 85 6 103 9 45 9 43 9 77 7 39 -2 58 -38 43
-82 -5 -16 -13 -29 -16 -29 -4 0 -77 -69 -162 -153 -114 -111 -179 -166 -243
-206 -76 -46 -89 -52 -103 -40 -9 8 -23 14 -30 14 -8 0 -14 3 -14 7 0 4 -12
20 -25 34 -14 15 -25 33 -25 40 0 8 -4 14 -8 14 -20 0 -19 -15 4 -51 27 -43
30 -68 12 -88 -11 -11 -10 -12 0 -6 8 4 13 2 11 -6 -4 -30 2 -39 25 -39 28 0
37 17 25 42 -6 10 -5 19 2 24 14 8 27 -5 31 -35 1 -14 8 -26 14 -28 7 -2 10 5
7 19 -4 19 7 30 69 68 40 24 78 48 83 52 39 31 88 78 218 206 l147 145 0 52
c0 46 -2 51 -22 52 -13 1 -36 4 -53 6 -16 2 -52 1 -80 -3z m-420 -530 c-4 -6
-10 -8 -14 -6 -4 3 -6 -9 -4 -27 l4 -32 -15 25 c-10 18 -11 29 -4 37 12 15 42
18 33 3z"/>
<path d="M2238 536 c-24 -18 -22 -25 5 -18 19 5 20 3 9 -10 -15 -19 -6 -48 17
-48 14 1 14 2 -1 11 -9 5 -15 16 -12 24 4 8 11 12 18 8 8 -5 8 -3 0 8 -6 8
-13 19 -15 26 -3 9 -8 8 -21 -1z"/>
<path d="M1520 519 c0 -5 11 -9 24 -9 14 0 26 -6 28 -14 3 -13 6 -13 22 0 11
7 18 15 15 18 -10 8 -89 13 -89 5z"/>
<path d="M1709 521 c7 -5 10 -14 6 -21 -6 -9 -3 -9 13 -1 20 11 52 6 52 -8 0
-4 7 -8 15 -8 8 0 15 7 15 15 0 8 -6 12 -14 9 -7 -3 -17 -2 -22 2 -5 5 -25 11
-44 15 -22 4 -30 3 -21 -3z"/>
<path d="M2107 508 c-8 -5 -3 -8 11 -8 15 0 22 -5 19 -12 -2 -7 -10 -12 -16
-10 -7 1 -10 -2 -6 -7 6 -11 35 -3 35 9 0 5 3 15 6 24 4 11 0 14 -16 13 -11
-1 -26 -5 -33 -9z"/>
<path d="M1364 493 c10 -18 -34 -65 -50 -52 -9 8 -11 5 -7 -11 l6 -21 23 22
c13 12 24 21 25 18 7 -34 4 -48 -7 -38 -8 7 -14 6 -20 -2 -4 -7 -3 -9 3 -6 11
7 36 -16 28 -25 -3 -3 3 -8 14 -11 12 -3 22 1 25 10 4 11 2 13 -9 9 -15 -5
-16 1 -19 81 -1 11 -5 25 -10 30 -5 4 -6 3 -2 -4z"/>
<path d="M2064 448 c-3 -4 4 -8 16 -8 18 0 19 -2 8 -22 -14 -27 -18 -59 -6
-52 5 3 7 13 6 22 -2 12 4 17 22 16 20 -2 22 0 9 10 -9 6 -15 19 -13 28 1 11
-4 16 -18 15 -11 -1 -22 -5 -24 -9z"/>
<path d="M1600 439 c0 -5 4 -8 9 -4 5 3 13 -4 16 -15 4 -12 11 -20 17 -18 10
4 12 19 1 17 -3 0 -10 6 -15 15 -10 18 -28 21 -28 5z"/>
<path d="M521 375 c-41 -20 -71 -38 -68 -41 5 -5 147 64 147 72 0 7 -2 6 -79
-31z"/>
<path d="M2182 384 c-7 -8 -26 -14 -42 -14 -17 0 -30 -5 -30 -11 0 -7 9 -9 21
-6 18 5 20 2 15 -19 -6 -22 -5 -24 8 -12 7 7 12 16 10 20 -3 4 5 16 18 27 12
12 20 23 17 25 -2 2 -10 -2 -17 -10z"/>
<path d="M1520 363 c0 -10 4 -14 8 -8 4 6 18 11 32 13 l25 3 -24 -21 c-33 -29
-12 -25 24 5 l30 24 -47 1 c-39 0 -48 -3 -48 -17z"/>
<path d="M1748 373 c33 -4 33 -5 17 -23 -10 -11 -22 -17 -26 -14 -5 3 -9 0 -9
-5 0 -17 13 -12 50 19 l35 29 -50 -1 c-37 -1 -41 -2 -17 -5z"/>
<path d="M1917 366 c-3 -8 4 -11 24 -8 22 3 29 0 29 -12 0 -9 -6 -16 -12 -16
-9 0 -10 -3 -2 -8 6 -4 14 -14 18 -22 3 -8 4 -5 2 8 -3 14 3 27 17 37 23 16
16 21 -40 29 -19 2 -33 -1 -36 -8z"/>
<path d="M1280 349 c0 -5 -9 -9 -19 -9 -11 0 -23 -4 -26 -10 -3 -6 1 -7 9 -4
19 7 21 -7 4 -24 -9 -9 -8 -12 6 -12 9 0 15 4 12 9 -3 4 1 16 8 27 12 16 16
17 32 4 11 -9 15 -10 10 -2 -4 7 -2 12 5 12 18 0 5 10 -20 15 -11 2 -21 0 -21
-6z"/>
<path d="M1395 331 c-3 -5 -1 -12 5 -16 15 -9 13 -38 -2 -29 -7 3 -2 -5 12
-18 14 -14 33 -25 43 -25 25 0 21 6 -15 23 -20 9 -24 13 -11 10 13 -2 26 1 30
6 3 6 1 8 -4 5 -6 -4 -14 0 -17 9 -9 23 -8 23 17 19 21 -4 21 -4 3 10 -22 17
-52 20 -61 6z"/>
<path d="M710 318 c0 -9 -18 -31 -40 -48 -48 -38 -50 -54 -9 -69 45 -15 99
-14 99 2 0 10 -13 13 -54 9 -55 -4 -79 9 -57 31 8 8 11 8 11 -1 0 -9 15 -12
50 -11 48 2 58 11 42 35 -4 7 -15 8 -27 3 -17 -6 -17 -8 -2 -8 30 -2 18 -21
-13 -21 -38 0 -38 15 -1 38 26 16 28 19 15 37 -12 16 -14 16 -14 3z"/>
<path d="M1583 296 c-4 -7 -15 -16 -23 -19 -8 -3 -1 -5 17 -4 24 1 29 4 22 13
-7 9 -5 14 8 17 16 4 16 5 1 6 -9 0 -21 -5 -25 -13z"/>
<path d="M1328 275 c4 -23 -1 -27 -24 -24 -4 0 -11 -5 -16 -13 -7 -10 -11 -9
-23 6 -7 10 -20 16 -27 13 -11 -4 -11 -6 0 -6 7 -1 10 -5 7 -11 -3 -5 1 -10 9
-10 9 0 16 -5 16 -11 0 -8 4 -8 13 -2 6 5 19 9 27 8 8 0 18 4 22 10 11 14 10
65 -1 65 -4 0 -6 -11 -3 -25z"/>
<path d="M1565 239 l-40 -6 35 -2 c33 -1 33 -2 17 -18 -15 -16 -19 -16 -27 -3
-5 8 -12 11 -17 7 -8 -8 15 -27 32 -27 10 1 50 49 43 54 -1 1 -21 -1 -43 -5z"/>
<path d="M1748 242 c-10 -2 -18 -8 -18 -12 0 -5 15 -7 33 -3 31 6 31 5 16 -13
-28 -33 -35 -51 -12 -31 12 10 23 15 25 10 3 -4 3 -3 2 4 -2 7 1 15 6 18 26
16 -12 36 -52 27z"/>
<path d="M1960 229 c-44 -6 -46 -13 -2 -9 27 2 28 -4 1 -31 -15 -15 -24 -18
-34 -9 -11 9 -12 7 -8 -9 4 -15 9 -18 22 -12 20 11 76 70 70 74 -2 1 -24 0
-49 -4z"/>
<path d="M2150 220 c-32 -7 -33 -7 -7 -9 25 -1 27 -3 17 -23 -11 -23 -11 -23
9 1 17 19 29 45 19 40 -2 -1 -19 -5 -38 -9z"/>
<path d="M2287 200 c-11 -13 -10 -13 7 0 18 14 18 13 12 -8 -4 -12 -4 -22 1
-22 8 1 53 35 53 42 0 11 -64 0 -73 -12z"/>
<path d="M1180 200 c0 -4 8 -11 17 -14 15 -6 15 -8 3 -16 -10 -6 -12 -12 -5
-19 7 -7 14 -2 22 18 10 27 9 30 -13 34 -13 2 -24 1 -24 -3z"/>
<path d="M1274 189 c-3 -5 5 -9 17 -9 18 0 19 -2 9 -15 -7 -8 -16 -12 -21 -9
-5 3 -9 1 -9 -5 0 -5 9 -9 19 -8 11 0 18 4 15 8 -2 4 3 12 11 19 8 7 15 15 15
19 0 10 -50 10 -56 0z"/>
<path d="M829 173 c-1 -5 -1 -11 0 -15 0 -5 -4 -8 -10 -8 -5 0 -8 -4 -5 -9 4
-5 2 -11 -2 -13 -5 -1 -12 -16 -15 -33 l-7 -30 16 30 c9 17 23 38 32 48 12 14
13 17 1 17 -11 0 -11 2 1 10 10 6 11 10 3 10 -7 0 -14 -3 -14 -7z"/>
<path d="M1392 102 c-12 -2 -20 -7 -17 -12 2 -4 0 -22 -6 -40 -8 -20 -14 -28
-19 -20 -4 7 -10 8 -13 4 -3 -5 1 -15 9 -22 12 -11 16 -9 24 13 6 15 10 29 10
31 0 3 6 12 14 19 11 12 13 7 8 -32 -5 -44 -4 -45 17 -34 12 7 27 9 33 5 7 -4
8 -3 4 4 -4 7 -16 12 -27 12 -25 0 -24 25 3 52 14 14 16 19 5 15 -8 -3 -17 -3
-19 1 -2 4 -13 6 -26 4z"/>
<path d="M0 61 c0 -6 6 -12 13 -12 6 -1 26 -3 42 -5 111 -12 308 -24 313 -20
3 3 -6 6 -19 6 -19 0 -21 2 -9 10 13 8 12 10 -2 10 -10 0 -18 -6 -18 -12 0
-10 -2 -10 -8 -1 -4 6 -36 14 -72 17 -215 18 -240 19 -240 7z"/>
<path d="M1657 42 c-20 -21 -22 -32 -6 -32 5 0 8 4 5 9 -10 16 19 19 72 9 34
-7 49 -14 45 -22 -4 -6 1 -5 10 3 9 7 17 21 16 30 0 12 -2 11 -9 -4 -5 -11 -9
-14 -9 -6 -1 8 -8 11 -21 8 -11 -3 -27 1 -34 9 -20 19 -50 18 -69 -4z"/>
<path d="M393 38 c-11 -4 4 -7 35 -7 37 -1 54 -5 58 -16 4 -8 10 -15 15 -15 6
0 5 8 0 19 -11 20 -76 32 -108 19z"/>
<path d="M1032 26 c-10 -22 -9 -25 11 -23 28 1 39 17 25 34 -15 19 -23 16 -36
-11z"/>
<path d="M511 26 c2 -2 36 -6 74 -9 42 -3 62 -2 50 3 -19 8 -133 14 -124 6z"/>
</g>
</svg>
